#N canvas 858 363 450 300 10;
#X obj 114 69 inlet;
#X obj 189 53 inlet;
#X obj 114 115 * 3.14159;
#X obj 114 137 / 44100;
#X obj 114 94 * 2;
#X obj 114 161 cos;
#X obj 114 212 *;
#X obj 208 105 *;
#X obj 114 238 outlet;
#X obj 208 152 outlet;
#X obj 114 186 * 2;
#X obj 208 127 * -1;
#X obj 189 77 t f f f;
#X connect 0 0 4 0;
#X connect 1 0 12 0;
#X connect 2 0 3 0;
#X connect 3 0 5 0;
#X connect 4 0 2 0;
#X connect 5 0 10 0;
#X connect 6 0 8 0;
#X connect 7 0 11 0;
#X connect 10 0 6 0;
#X connect 11 0 9 0;
#X connect 12 0 6 1;
#X connect 12 1 7 0;
#X connect 12 2 7 1;
