#N canvas 440 150 633 479 10;
#X obj 228 394 dac~;
#X obj 49 100 osc~;
#X floatatom 49 53 5 0 0 0 - - -;
#X obj 229 361 *~;
#X obj 121 101 osc~;
#X obj 47 223 +~;
#X obj 160 100 osc~;
#X obj 47 247 +~;
#X msg 49 28 440;
#X floatatom -136 221 10 0 0 0 - - -;
#X obj -206 132 hsl 128 15 0.001 1 0 0 empty empty Beta -2 -8 0 10
-262144 -1 -1 12700 1;
#X obj -67 163 /;
#X floatatom -137 195 10 0 0 0 - - -;
#X msg -171 85 0.5;
#X obj 198 99 osc~;
#X obj 47 272 +~;
#X obj 85 101 osc~;
#X obj 48 200 +~;
#N canvas 150 220 554 440 pick 0;
#X obj 206 75 inlet~;
#X obj 294 137 delwrite~ combNoise1 1000;
#X obj 208 291 outlet~;
#X obj 207 266 +~;
#X obj 281 75 inlet;
#X obj 282 168 vd~ combNoise1;
#X obj 52 95 block~ 1;
#X obj 283 203 *~ -0.96;
#X connect 0 0 1 0;
#X connect 0 0 3 0;
#X connect 3 0 2 0;
#X connect 4 0 5 0;
#X connect 5 0 7 0;
#X connect 7 0 3 1;
#X restore 229 289 pd pick;
#X floatatom -209 154 5 0 0 0 - - -;
#X obj -67 106 r freq;
#X obj -67 131 t b f;
#X msg -138 85 0.333;
#X obj 7 75 s freq;
#X obj -67 221 s delay;
#X obj -67 196 * 1000;
#X obj 268 262 r delay;
#X msg -209 85 0.25;
#X obj 85 78 * 2;
#X obj 121 78 * 3;
#X obj 160 78 * 4;
#X obj 198 77 * 5;
#X obj 228 315 *~ 0.1;
#X obj 48 158 *~;
#X obj 63 139 tgl 15 0 empty empty empty 17 7 0 10 -262144 -1 -1 0
1;
#X obj 84 158 *~;
#X obj 99 139 tgl 15 0 empty empty empty 17 7 0 10 -262144 -1 -1 0
1;
#X obj 121 160 *~;
#X obj 136 141 tgl 15 0 empty empty empty 17 7 0 10 -262144 -1 -1 0
1;
#X obj 160 158 *~;
#X obj 175 139 tgl 15 0 empty empty empty 17 7 0 10 -262144 -1 -1 0
1;
#X obj 198 157 *~;
#X obj 213 136 tgl 15 0 empty empty empty 17 7 0 10 -262144 -1 -1 0
1;
#X msg -95 84 1;
#X text -231 -18 Comb Filter Demo. Picking different values of Beta
changes the set of harmonics attenuated by the comb filter. For any
given value of Beta \, try turning individual harmonics on/off to hear
their relative strength.;
#X obj 247 339 hsl 128 15 0 1 0 0 empty empty empty -2 -8 0 10 -262144
-1 -1 2400 1;
#X connect 1 0 33 0;
#X connect 2 0 1 0;
#X connect 2 0 23 0;
#X connect 2 0 28 0;
#X connect 2 0 29 0;
#X connect 2 0 30 0;
#X connect 2 0 31 0;
#X connect 3 0 0 1;
#X connect 3 0 0 0;
#X connect 4 0 37 0;
#X connect 5 0 7 0;
#X connect 6 0 39 0;
#X connect 7 0 15 0;
#X connect 8 0 2 0;
#X connect 10 0 19 0;
#X connect 10 0 11 0;
#X connect 11 0 12 0;
#X connect 11 0 25 0;
#X connect 13 0 10 0;
#X connect 14 0 41 0;
#X connect 15 0 18 0;
#X connect 16 0 35 0;
#X connect 17 0 5 0;
#X connect 18 0 32 0;
#X connect 20 0 21 0;
#X connect 21 0 11 0;
#X connect 21 1 11 1;
#X connect 22 0 10 0;
#X connect 25 0 9 0;
#X connect 25 0 24 0;
#X connect 26 0 18 1;
#X connect 27 0 10 0;
#X connect 28 0 16 0;
#X connect 29 0 4 0;
#X connect 30 0 6 0;
#X connect 31 0 14 0;
#X connect 32 0 3 0;
#X connect 33 0 17 0;
#X connect 34 0 33 1;
#X connect 35 0 17 1;
#X connect 36 0 35 1;
#X connect 37 0 5 1;
#X connect 38 0 37 1;
#X connect 39 0 7 1;
#X connect 40 0 39 1;
#X connect 41 0 15 1;
#X connect 42 0 41 1;
#X connect 43 0 10 0;
#X connect 45 0 3 1;
