#N canvas 55 136 1000 518 10;
#X obj 57 221 *~;
#X msg 114 193 1;
#X msg 147 193 0;
#X floatatom -230 222 5 0 0 0 Frequency - -;
#X obj 218 274 expr 1000/$f1;
#X obj 53 446 dac~;
#X msg -199 195 800;
#X msg -230 195 440;
#X obj 218 356 spigot;
#X obj 218 307 t f f;
#X obj 251 332 > 2;
#X obj -230 246 s freq;
#N canvas 249 202 509 336 pick 0;
#X obj 206 75 inlet~;
#X obj 294 137 delwrite~ combNoise1 1000;
#X obj 208 291 outlet~;
#X obj 207 266 +~;
#X obj 282 168 vd~ combNoise1;
#X obj 105 162 block~ 1;
#X obj 283 203 *~ -0.96;
#X obj 282 69 /;
#X obj 311 20 r freq;
#X obj 311 44 t b f;
#X obj 282 92 * 1000;
#X obj 242 20 r pluckPos;
#X connect 0 0 1 0;
#X connect 0 0 3 0;
#X connect 3 0 2 0;
#X connect 4 0 6 0;
#X connect 6 0 3 1;
#X connect 7 0 10 0;
#X connect 8 0 9 0;
#X connect 9 0 7 0;
#X connect 9 1 7 1;
#X connect 10 0 4 0;
#X connect 11 0 7 0;
#X restore 56 296 pd pick;
#X obj -85 120 hsl 128 15 0.01 0.5 0 0 empty empty Pluck_Position -2
-8 0 10 -262144 -1 -1 12700 1;
#X msg -2 80 0.5;
#X msg -88 80 0.25;
#X obj 218 248 r freq;
#X obj -88 145 s pluckPos;
#X msg -48 80 0.333;
#N canvas 483 268 490 329 loopDelay 0;
#X obj 256 3 inlet~;
#X obj 181 105 inlet~;
#X obj 253 212 outlet~;
#X obj 255 84 *~ 0.5;
#X obj 306 84 *~ 0.5;
#X obj 255 116 +~;
#X obj 181 260 delwrite~ buffer2 1000;
#X obj 256 29 vd~ buffer2;
#X obj 306 59 z~ 1;
#X obj 181 232 +~;
#X obj 73 73 block~ 1;
#X obj 254 158 *~ 0.993;
#X connect 0 0 7 0;
#X connect 1 0 9 0;
#X connect 3 0 5 0;
#X connect 4 0 5 1;
#X connect 5 0 11 0;
#X connect 7 0 8 0;
#X connect 7 0 3 0;
#X connect 8 0 4 0;
#X connect 9 0 6 0;
#X connect 11 0 9 1;
#X connect 11 0 2 0;
#X restore 55 385 pd loopDelay;
#X obj 115 84 s pluck;
#X obj 114 144 r pluck;
#X obj 115 53 bng 15 250 50 0 empty empty Pluck! 17 7 0 10 -262144
-1 -1;
#X text 185 164 try changing this delay amount for slightly different
timbre;
#X text -277 294 Simulates the position of the guitar pick by filtering
certain harmonics from the excitation signal.;
#X msg -167 195 2000;
#X obj 147 168 del 8;
#X text -107 385 Simulates decay of sound.;
#X text 305 272 This part calculates the delay length of the decay
loop.;
#X obj 55 418 *~ 0.3;
#X obj 56 340 lop~ 1200;
#X text -305 118 Select position on string to pluck.;
#X text -163 223 Select Frequency;
#X obj 58 191 noise~;
#X obj 17 191 pink~;
#X obj -230 167 loadbang;
#X connect 0 0 12 0;
#X connect 1 0 0 1;
#X connect 2 0 0 1;
#X connect 3 0 11 0;
#X connect 4 0 19 1;
#X connect 4 0 9 0;
#X connect 6 0 3 0;
#X connect 7 0 3 0;
#X connect 8 0 26 1;
#X connect 9 0 8 0;
#X connect 9 1 10 0;
#X connect 10 0 8 1;
#X connect 12 0 30 0;
#X connect 13 0 17 0;
#X connect 14 0 13 0;
#X connect 15 0 13 0;
#X connect 16 0 4 0;
#X connect 18 0 13 0;
#X connect 19 0 29 0;
#X connect 21 0 1 0;
#X connect 21 0 26 0;
#X connect 22 0 20 0;
#X connect 25 0 3 0;
#X connect 26 0 2 0;
#X connect 29 0 5 0;
#X connect 29 0 5 1;
#X connect 30 0 19 0;
#X connect 33 0 0 0;
#X connect 35 0 7 0;
