#N canvas 555 47 759 564 10;
#X obj 24 351 soundfiler;
#X msg 24 325 read -resize -raw 0 2 2 b ./marmstk1.raw sf-marmstk1
;
#N canvas 91 371 450 300 (subpatch) 0;
#X array sf-marmstk1 128 float 0;
#X coords 0 1 127 -1 200 140 1;
#X restore 24 394 graph;
#X obj 493 71 line~;
#X obj 492 98 tabread4~ sf-marmstk1;
#X obj 34 207 hsl 128 15 0 0.99 0 0 empty empty Amplitude -2 -8 0 10
-262144 -1 -1 6414 1;
#X obj 31 233 s amp;
#X obj 179 205 s freq;
#X obj 35 65 hsl 128 15 0 0.8 0 0 empty empty Master_Gain -2 -8 0 10
-262144 -1 -1 5900 1;
#X obj 32 90 s masterGain;
#X obj 527 157 r amp;
#X obj 527 180 swap 1;
#X obj 527 204 -;
#X obj 494 254 rpole~;
#X obj 493 229 *~;
#X obj 506 463 dac~;
#X obj 416 371 biquad~;
#X obj 470 371 biquad~;
#X obj 522 371 biquad~;
#X obj 574 371 biquad~;
#X obj 538 415 r masterGain;
#X obj 24 301 loadbang;
#N canvas 140 107 607 578 set 0;
#X obj 62 169 unpack f f f f;
#X obj 62 213 *;
#X obj 216 169 unpack f f f f;
#X obj 89 213 *;
#X obj 116 213 *;
#X obj 143 213 *;
#X obj 158 169 r freq;
#X obj -10 360 pack f f;
#X msg -10 394 \$1 \$2 1 0 -1;
#X obj 127 359 pack f f;
#X msg 127 393 \$1 \$2 1 0 -1;
#X obj 221 355 pack f f;
#X msg 221 389 \$1 \$2 1 0 -1;
#X obj 316 355 pack f f;
#X msg 316 389 \$1 \$2 1 0 -1;
#X obj -10 429 outlet;
#X obj 127 430 outlet;
#X obj 221 428 outlet;
#X obj 316 430 outlet;
#X obj 62 304 bq_coeff;
#X obj 422 200 s modeGain1;
#X obj 434 224 s modeGain2;
#X obj 456 247 s modeGain3;
#X obj 474 272 s modeGain4;
#X obj 422 174 unpack f f f f;
#X obj 62 48 inlet;
#X msg 62 140 1 2.01 3.9 14.37;
#X msg 216 144 0.99995 0.99991 0.99992 0.9999;
#X msg 422 147 0.025 0.015 0.015 0.015;
#X obj 65 108 t b b b;
#X obj -1 95 r freq;
#X obj 122 303 bq_coeff;
#X obj 179 304 bq_coeff;
#X obj 236 304 bq_coeff;
#X obj 1 123 del 10;
#X connect 0 0 1 0;
#X connect 0 1 3 0;
#X connect 0 2 4 0;
#X connect 0 3 5 0;
#X connect 1 0 19 0;
#X connect 2 0 19 1;
#X connect 2 1 31 1;
#X connect 2 2 32 1;
#X connect 2 3 33 1;
#X connect 3 0 31 0;
#X connect 4 0 32 0;
#X connect 5 0 33 0;
#X connect 6 0 1 1;
#X connect 6 0 3 1;
#X connect 6 0 4 1;
#X connect 6 0 5 1;
#X connect 7 0 8 0;
#X connect 8 0 15 0;
#X connect 9 0 10 0;
#X connect 10 0 16 0;
#X connect 11 0 12 0;
#X connect 12 0 17 0;
#X connect 13 0 14 0;
#X connect 14 0 18 0;
#X connect 19 0 7 0;
#X connect 19 1 7 1;
#X connect 24 0 20 0;
#X connect 24 1 21 0;
#X connect 24 2 22 0;
#X connect 24 3 23 0;
#X connect 25 0 29 0;
#X connect 26 0 0 0;
#X connect 27 0 2 0;
#X connect 28 0 24 0;
#X connect 29 0 26 0;
#X connect 29 1 27 0;
#X connect 29 2 28 0;
#X connect 30 0 34 0;
#X connect 31 0 9 0;
#X connect 31 1 9 1;
#X connect 32 0 11 0;
#X connect 32 1 11 1;
#X connect 33 0 13 0;
#X connect 33 1 13 1;
#X connect 34 0 26 0;
#X restore 181 238 pd set;
#X obj 415 346 *~;
#X obj 469 346 *~;
#X obj 522 346 *~;
#X obj 573 346 *~;
#X obj 585 239 r modeGain1;
#X obj 597 263 r modeGain2;
#X obj 619 286 r modeGain3;
#X obj 637 311 r modeGain4;
#X msg 493 44 0 \, 128 120;
#X obj 31 141 loadbang;
#X msg 31 164 0.5;
#X msg 179 182 440;
#X obj 505 437 *~;
#X text 247 499 Note that it can handle only one frequency at a time
\, so changing the frequency too early will cause a glitch.;
#X text 234 232 This subpatch sets the;
#X text 235 245 biquad coefficients.;
#X msg 210 182 660;
#X text 133 110 This is a simple model of a vibraphone using four biquad
filters and an excitation signal of the mallet (from STK-synth library).
;
#X obj 78 165 t b b;
#X connect 1 0 0 0;
#X connect 3 0 4 0;
#X connect 4 0 14 0;
#X connect 5 0 6 0;
#X connect 8 0 9 0;
#X connect 10 0 11 0;
#X connect 10 0 14 1;
#X connect 11 0 12 0;
#X connect 11 1 12 1;
#X connect 12 0 13 1;
#X connect 13 0 23 0;
#X connect 13 0 24 0;
#X connect 13 0 25 0;
#X connect 13 0 26 0;
#X connect 14 0 13 0;
#X connect 16 0 35 0;
#X connect 17 0 35 0;
#X connect 18 0 35 0;
#X connect 19 0 35 0;
#X connect 20 0 35 1;
#X connect 21 0 1 0;
#X connect 22 0 16 0;
#X connect 22 1 17 0;
#X connect 22 2 18 0;
#X connect 22 3 19 0;
#X connect 23 0 16 0;
#X connect 24 0 17 0;
#X connect 25 0 18 0;
#X connect 26 0 19 0;
#X connect 27 0 23 1;
#X connect 28 0 24 1;
#X connect 29 0 25 1;
#X connect 30 0 26 1;
#X connect 31 0 3 0;
#X connect 32 0 41 0;
#X connect 32 0 33 0;
#X connect 33 0 5 0;
#X connect 34 0 7 0;
#X connect 35 0 15 0;
#X connect 35 0 15 1;
#X connect 39 0 7 0;
#X connect 41 0 22 0;
#X connect 41 1 34 0;
